<?xml version="1.0" encoding="UTF-8" standalone="no"?>
<!-- Created with Inkscape (http://www.inkscape.org/) -->

<svg
   xmlns:dc="http://purl.org/dc/elements/1.1/"
   xmlns:cc="http://creativecommons.org/ns#"
   xmlns:rdf="http://www.w3.org/1999/02/22-rdf-syntax-ns#"
   xmlns:svg="http://www.w3.org/2000/svg"
   xmlns="http://www.w3.org/2000/svg"
   xmlns:sodipodi="http://sodipodi.sourceforge.net/DTD/sodipodi-0.dtd"
   xmlns:inkscape="http://www.inkscape.org/namespaces/inkscape"
   width="381.29608mm"
   height="111.76559mm"
   viewBox="0 0 381.29608 111.76559"
   version="1.1"
   id="svg1943"
   inkscape:version="0.92.4 (5da689c313, 2019-01-14)"
   sodipodi:docname="liva nova.svg">
  <defs
     id="defs1937" />
  <sodipodi:namedview
     id="base"
     pagecolor="#ffffff"
     bordercolor="#666666"
     borderopacity="1.0"
     inkscape:pageopacity="0.0"
     inkscape:pageshadow="2"
     inkscape:zoom="0.35"
     inkscape:cx="716.78001"
     inkscape:cy="207.43102"
     inkscape:document-units="mm"
     inkscape:current-layer="layer1"
     showgrid="false"
     fit-margin-top="0"
     fit-margin-left="0"
     fit-margin-right="0"
     fit-margin-bottom="0"
     inkscape:window-width="1920"
     inkscape:window-height="1001"
     inkscape:window-x="-9"
     inkscape:window-y="-9"
     inkscape:window-maximized="1" />
  <metadata
     id="metadata1940">
    <rdf:RDF>
      <cc:Work
         rdf:about="">
        <dc:format>image/svg+xml</dc:format>
        <dc:type
           rdf:resource="http://purl.org/dc/dcmitype/StillImage" />
        <dc:title></dc:title>
      </cc:Work>
    </rdf:RDF>
  </metadata>
  <g
     inkscape:label="Layer 1"
     inkscape:groupmode="layer"
     id="layer1"
     transform="translate(216.86233,-91.950523)">
    <g
       transform="translate(350.63279,69.648688)"
       id="g1935">
      <polygon
         transform="matrix(0.26458333,0,0,0.26458333,-566.53679,23.24258)"
         points="47.990788,0.55953315 0.16317487,0.55953315 0.16317487,23.62621 47.990787,23.62621 47.990787,0.55953315 "
         id="polygon1523"
         style="fill:#6d2077;fill-rule:nonzero;stroke:none;stroke-width:1" />
      <polygon
         transform="matrix(0.26458333,0,0,0.26458333,-566.53679,23.24258)"
         points="47.990788,43.304203 0.16317487,43.304203 0.16317487,69.765123 47.990787,69.765123 47.990787,43.304203 "
         id="polygon1525"
         style="fill:#6d2077;fill-rule:nonzero;stroke:none;stroke-width:1" />
      <polygon
         transform="matrix(0.26458333,0,0,0.26458333,-566.53679,23.24258)"
         points="47.990788,89.437386 0.16317487,89.437386 0.16317487,124.37558 47.990787,124.37558 47.990787,89.437386 "
         id="polygon1527"
         style="fill:#6d2077;fill-rule:nonzero;stroke:none;stroke-width:1" />
      <polygon
         transform="matrix(0.26458333,0,0,0.26458333,-566.53679,23.24258)"
         points="47.990788,144.04802 0.16317487,144.04802 0.16317487,180.34515 47.990787,180.34515 47.990787,144.04802 "
         id="polygon1529"
         style="fill:#6d2077;fill-rule:nonzero;stroke:none;stroke-width:1" />
      <polygon
         transform="matrix(0.26458333,0,0,0.26458333,-566.53679,23.24258)"
         points="160.27081,200.02313 0.1574925,200.02313 0.1574925,245.82092 160.27081,245.82092 "
         id="polygon1531"
         style="fill:#6d2077;fill-rule:nonzero;stroke:none;stroke-width:1" />
      <polygon
         transform="matrix(0.26458333,0,0,0.26458333,-518.31648,23.24258)"
         points="46.208656,75.871525 0.75195698,75.871525 0.75195698,245.82092 46.208656,245.82092 "
         id="polygon1534"
         style="fill:#6d2077;fill-rule:nonzero;stroke:none;stroke-width:1" />
      <polygon
         transform="matrix(0.26458333,0,0,0.26458333,-518.31648,23.24258)"
         points="46.879532,46.357315 0.069705975,46.357315 0.069705975,0.55953315 46.879532,0.55953315 "
         id="polygon1536"
         style="fill:#6d2077;fill-rule:nonzero;stroke:none;stroke-width:1" />
      <polygon
         transform="matrix(0.26458333,0,0,0.26458333,-566.53679,23.24258)"
         points="340.40318,189.50467 298.67633,75.865803 248.131,75.865803 317.33086,245.82092 363.12875,245.82092 428.93999,75.865803 380.77125,75.865803 "
         id="polygon1540"
         style="fill:#6d2077;fill-rule:nonzero;stroke:none;stroke-width:1" />
      <polygon
         transform="matrix(0.26458333,0,0,0.26458333,-395.6821,23.24258)"
         points="48.118103,222.75426 0.29049683,222.75426 0.29049683,245.82092 48.118103,245.82092 "
         id="polygon1542"
         style="fill:#6d2077;fill-rule:nonzero;stroke:none;stroke-width:1" />
      <polygon
         transform="matrix(0.26458333,0,0,0.26458333,-395.6821,23.24258)"
         points="48.118103,176.61534 0.29049683,176.61534 0.29049683,203.07626 48.118103,203.07626 "
         id="polygon1544"
         style="fill:#6d2077;fill-rule:nonzero;stroke:none;stroke-width:1" />
      <polygon
         transform="matrix(0.26458333,0,0,0.26458333,-395.6821,23.24258)"
         points="48.118103,121.99916 0.29049683,121.99916 0.29049683,156.94307 48.118103,156.94307 "
         id="polygon1546"
         style="fill:#6d2077;fill-rule:nonzero;stroke:none;stroke-width:1" />
      <polygon
         transform="matrix(0.26458333,0,0,0.26458333,-395.6821,23.24258)"
         points="48.118103,66.029583 0.29049683,66.029583 0.29049683,102.32672 48.118103,102.32672 "
         id="polygon1548"
         style="fill:#6d2077;fill-rule:nonzero;stroke:none;stroke-width:1" />
      <polygon
         transform="matrix(0.26458333,0,0,0.26458333,-395.6821,23.24258)"
         points="172.95758,175.94437 72.879044,0.22396088 48.118011,0.22396088 0.29049683,0.22396088 0.29049683,46.357315 48.118011,46.357315 161.75693,245.82092 220.44983,245.82092 220.44983,0.22396088 172.95758,0.22396088 "
         id="polygon1550"
         style="fill:#6d2077;fill-rule:nonzero;stroke:none;stroke-width:1" />
      <polygon
         transform="matrix(0.26458333,0,0,0.26458333,-566.53679,23.24258)"
         points="1167.766,189.50467 1125.7038,75.865803 1075.4995,75.865803 1144.3584,245.82092 1190.4916,245.82092 1255.9674,75.865803 1208.1341,75.865803 "
         id="polygon1554"
         style="fill:#6d2077;fill-rule:nonzero;stroke:none;stroke-width:1" />
      <path
         id="Shape"
         d="m -417.95502,43.315398 v 5.654766 c -0.98682,-2.602494 -4.75517,-6.820599 -12.83338,-6.820599 -13.01392,0 -21.63072,10.411417 -21.63072,23.425337 0,13.552469 8.79579,23.963897 22.07898,23.963897 5.92404,0 10.68072,-3.052273 12.56563,-7.359155 l 1.34637,6.103054 h 10.32269 v -44.9673 z m -10.94848,35.721716 c -6.55133,0 -11.30951,-5.295207 -11.30951,-13.462212 0,-8.166965 4.75818,-12.923665 11.30951,-12.923665 6.37233,0 10.94848,4.7567 10.94848,12.923665 0,8.257262 -4.66491,13.462212 -10.94848,13.462212 z"
         inkscape:connector-curvature="0"
         style="fill:#6d2077;fill-rule:nonzero;stroke:none;stroke-width:0.26458332" />
      <path
         id="path1557"
         d="m -305.85271,42.059309 c -13.37195,0 -23.42533,9.963127 -23.42533,23.784897 0,13.731467 10.05338,23.784848 23.42533,23.784848 13.46222,0 23.60589,-10.053381 23.60589,-23.784848 0,-13.82177 -10.14367,-23.784897 -23.60589,-23.784897 z m 0,36.439261 c -5.83377,0 -11.3095,-4.308411 -11.3095,-12.654364 0,-8.526526 5.47573,-12.74468 11.3095,-12.74468 6.01433,0 11.30954,4.218154 11.30954,12.74468 0,8.345953 -5.29521,12.654364 -11.30954,12.654364 z"
         inkscape:connector-curvature="0"
         style="fill:#6d2077;fill-rule:nonzero;stroke:none;stroke-width:0.26458332" />
      <path
         id="path1559"
         d="m -199.0456,43.315398 v 5.654766 c -0.98682,-2.602494 -4.75819,-6.820599 -12.83488,-6.820599 -13.01544,0 -21.63072,10.411417 -21.63072,23.425337 0,13.552469 8.79435,23.963897 22.079,23.963897 5.92402,0 10.68073,-3.052273 12.56564,-7.359155 l 1.34634,6.103054 h 10.32118 v -44.9673 z m -10.94997,35.721716 c -6.55285,0 -11.30953,-5.295207 -11.30953,-13.462212 0,-8.166965 4.75668,-12.923665 11.30953,-12.923665 6.37228,0 10.94997,4.7567 10.94997,12.923665 0,8.257262 -4.66794,13.462212 -10.94997,13.462212 z"
         inkscape:connector-curvature="0"
         style="fill:#6d2077;fill-rule:nonzero;stroke:none;stroke-width:0.26458332" />
      <polygon
         transform="matrix(0.26458333,0,0,0.26458333,-566.53679,114.92071)"
         id="polygon1562"
         points="48.014648,67.822907 37.570095,67.822907 37.570095,37.251114 10.603129,37.251114 10.603129,67.822907 0.15862013,67.822907 0.15862013,1.3633118 10.603129,1.3633118 10.603129,27.380905 37.570095,27.380905 37.570095,1.3633118 48.014648,1.3633118 "
         style="fill:#ff5c39;fill-rule:nonzero;stroke:none;stroke-width:1" />
      <path
         inkscape:connector-curvature="0"
         d="m -537.47745,127.26447 h -8.96878 c 0,1.85787 1.0801,3.49005 3.13952,3.49005 1.3569,0 2.66417,-0.75369 3.31704,-2.13466 l 2.23543,0.88007 c -1.23054,2.38585 -2.66265,3.56675 -5.55247,3.56675 -4.16848,0 -5.90297,-3.51713 -5.90297,-6.53179 0,-3.01466 1.73449,-6.5318 5.90297,-6.5318 4.04514,0 5.82926,3.2915 5.82926,6.13015 z m -8.91913,-2.18579 h 6.15569 c -0.22565,-1.40801 -1.18089,-2.76493 -3.06582,-2.76493 -1.73299,0 -2.81308,1.18242 -3.08987,2.76493"
         id="path1564"
         style="fill:#ff5c39;fill-rule:nonzero;stroke:none;stroke-width:0.26458332" />
      <path
         inkscape:connector-curvature="0"
         d="m -528.70301,125.07945 h 2.18578 v -0.5536 c 0,-1.58256 -1.13125,-2.21136 -2.46258,-2.21136 -1.03046,0 -1.93456,0.55361 -2.36179,1.68483 l -2.38736,-0.50393 c 0.52801,-2.13465 2.33772,-3.49152 4.77323,-3.49152 2.93944,0 5.05001,1.28168 5.05001,4.99888 v 7.86309 h -2.20985 l -0.25273,-1.65775 c -0.82888,1.15528 -2.13464,1.85933 -3.91876,1.85933 -2.11057,0 -3.89319,-1.20647 -3.89319,-3.84354 0,-2.61302 2.23541,-4.14443 5.47724,-4.14443 m -1.13125,5.67579 c 1.60811,0 3.31703,-1.02894 3.31703,-3.2162 v -0.2738 h -2.28657 c -1.60812,0 -2.61301,0.75218 -2.61301,1.95864 0,0.85444 0.47687,1.53136 1.58255,1.53136"
         id="path1566"
         style="fill:#ff5c39;fill-rule:nonzero;stroke:none;stroke-width:0.26458332" />
      <polygon
         transform="matrix(0.26458333,0,0,0.26458333,-566.53679,114.92071)"
         id="polygon1568"
         points="179.24945,0.59916682 189.11973,0.59916682 189.11973,67.82048 179.24945,67.82048 "
         style="fill:#ff5c39;fill-rule:nonzero;stroke:none;stroke-width:1" />
      <path
         inkscape:connector-curvature="0"
         d="m -512.88863,120.20509 h 2.11057 v -3.49151 l 2.61151,-1.6337 v 5.12521 h 3.29144 v 2.31066 h -3.29144 v 6.17977 c 0,1.43211 0.52952,2.05941 1.68483,2.05941 0.45131,0 0.75366,-0.0752 1.20496,-0.35199 l 0.67846,2.21136 c -0.67846,0.32794 -1.33132,0.45279 -2.03535,0.45279 -2.38585,0 -4.14441,-1.40805 -4.14441,-4.52201 v -6.02933 h -2.11057 z"
         id="path1570"
         style="fill:#ff5c39;fill-rule:nonzero;stroke:none;stroke-width:0.26458332" />
      <path
         inkscape:connector-curvature="0"
         d="m -498.16415,115.07942 v 7.28548 c 0.9041,-1.30577 2.36178,-2.36181 4.27076,-2.36181 2.33623,0 3.74277,1.2561 3.74277,3.94436 v 8.91766 h -2.61301 v -8.23923 c 0,-1.93453 -0.80331,-2.31213 -1.98271,-2.31213 -1.43211,0 -3.41781,1.83528 -3.41781,5.20198 v 5.34938 h -2.61152 v -17.78569 z"
         id="path1572"
         style="fill:#ff5c39;fill-rule:nonzero;stroke:none;stroke-width:0.26458332" />
      <path
         inkscape:connector-curvature="0"
         d="m -476.04004,114.80397 c 1.03046,0 1.80971,0.82887 1.80971,1.83376 0,1.00489 -0.77925,1.78414 -1.80971,1.78414 -1.02894,0 -1.80819,-0.77925 -1.80819,-1.78414 0,-1.00489 0.77925,-1.83376 1.80819,-1.83376 m 1.30726,18.06091 h -2.61301 v -12.66043 h 2.61301 z"
         id="path1576"
         style="fill:#ff5c39;fill-rule:nonzero;stroke:none;stroke-width:0.26458332" />
      <path
         inkscape:connector-curvature="0"
         d="m -467.05155,120.20509 v 2.16022 c 0.9041,-1.50731 2.41143,-2.36176 4.09476,-2.36176 2.21136,0 3.71719,1.33129 3.71719,3.7924 v 9.06957 h -2.61152 v -8.23918 c 0,-1.70894 -0.77923,-2.31218 -1.95861,-2.31218 -1.63372,0 -3.24182,1.93459 -3.24182,5.42762 v 5.12374 h -2.61152 v -12.66043 z"
         id="path1578"
         style="fill:#ff5c39;fill-rule:nonzero;stroke:none;stroke-width:0.26458332" />
      <path
         inkscape:connector-curvature="0"
         d="m -451.57489,120.20509 v 2.16022 c 0.9041,-1.50731 2.41143,-2.36176 4.09474,-2.36176 2.21137,0 3.71721,1.33129 3.71721,3.7924 v 9.06957 h -2.61152 v -8.23918 c 0,-1.70894 -0.77923,-2.31218 -1.95861,-2.31218 -1.63372,0 -3.24182,1.93459 -3.24182,5.42762 v 5.12374 h -2.61153 v -12.66043 z"
         id="path1580"
         style="fill:#ff5c39;fill-rule:nonzero;stroke:none;stroke-width:0.26458332" />
      <path
         inkscape:connector-curvature="0"
         d="m -433.29673,120.00387 c 3.91876,0 6.2294,2.965 6.2294,6.53175 0,3.56677 -2.31064,6.5318 -6.2294,6.5318 -3.91878,0 -6.23093,-2.96503 -6.23093,-6.5318 0,-3.56675 2.31215,-6.53175 6.23093,-6.53175 m 0,10.75137 c 2.28656,0 3.46594,-2.08497 3.46594,-4.21962 0,-2.13464 -1.17938,-4.22114 -3.46594,-4.22114 -2.28658,0 -3.46597,2.0865 -3.46597,4.22114 0,2.13465 1.17939,4.21962 3.46597,4.21962"
         id="path1582"
         style="fill:#ff5c39;fill-rule:nonzero;stroke:none;stroke-width:0.26458332" />
      <polygon
         transform="matrix(0.26458333,0,0,0.26458333,-478.03367,114.72227)"
         id="polygon1584"
         points="232.43275,20.722458 242.49065,20.722458 226.63911,68.572906 217.33168,68.572906 201.47443,20.722458 211.54372,20.722458 221.98819,55.092224 "
         style="fill:#ff5c39;fill-rule:nonzero;stroke:none;stroke-width:1" />
      <path
         inkscape:connector-curvature="0"
         d="m -406.05716,125.07945 h 2.18576 v -0.5536 c 0,-1.58256 -1.13125,-2.21137 -2.46257,-2.21137 -1.03046,0 -1.93456,0.55362 -2.36179,1.68484 l -2.38736,-0.50394 c 0.52802,-2.13464 2.33772,-3.49151 4.77323,-3.49151 2.93944,0 5.05002,1.28167 5.05002,4.99888 v 7.86308 h -2.20987 l -0.25273,-1.65774 c -0.82888,1.15528 -2.13462,1.85933 -3.91875,1.85933 -2.11057,0 -3.8932,-1.20647 -3.8932,-3.84354 0,-2.61302 2.23542,-4.14443 5.47726,-4.14443 m -1.13125,5.67579 c 1.6081,0 3.31701,-1.02894 3.31701,-3.2162 v -0.2738 h -2.28655 c -1.60812,0 -2.61302,0.75217 -2.61302,1.95864 0,0.85444 0.47688,1.53136 1.58256,1.53136"
         id="path1586"
         style="fill:#ff5c39;fill-rule:nonzero;stroke:none;stroke-width:0.26458332" />
      <path
         inkscape:connector-curvature="0"
         d="m -398.04858,120.20509 h 2.11056 v -3.49152 l 2.6115,-1.63369 v 5.12521 h 3.29147 v 2.31066 h -3.29147 v 6.17977 c 0,1.43211 0.52953,2.05941 1.68484,2.05941 0.4513,0 0.75368,-0.0752 1.20498,-0.35199 l 0.67843,2.21136 c -0.67843,0.32793 -1.33131,0.45279 -2.03534,0.45279 -2.38587,0 -4.14441,-1.40805 -4.14441,-4.52201 v -6.02933 h -2.11056 z"
         id="path1588"
         style="fill:#ff5c39;fill-rule:nonzero;stroke:none;stroke-width:0.26458332" />
      <path
         inkscape:connector-curvature="0"
         d="m -384.69138,114.80397 c 1.02896,0 1.8097,0.82887 1.8097,1.83376 0,1.00489 -0.78074,1.78414 -1.8097,1.78414 -1.03046,0 -1.8082,-0.77925 -1.8082,-1.78414 0,-1.00489 0.77774,-1.83376 1.8082,-1.83376 m 1.30575,18.06091 h -2.61302 v -12.66043 h 2.61302 z"
         id="path1590"
         style="fill:#ff5c39;fill-rule:nonzero;stroke:none;stroke-width:0.26458332" />
      <path
         inkscape:connector-curvature="0"
         d="m -372.96802,120.00387 c 3.91877,0 6.22941,2.965 6.22941,6.53175 0,3.56677 -2.31064,6.5318 -6.22941,6.5318 -3.91878,0 -6.23093,-2.96503 -6.23093,-6.5318 0,-3.56675 2.31215,-6.53175 6.23093,-6.53175 m 0,10.75137 c 2.28656,0 3.46595,-2.08497 3.46595,-4.21962 0,-2.13464 -1.17939,-4.22114 -3.46595,-4.22114 -2.28658,0 -3.46597,2.0865 -3.46597,4.22114 0,2.13465 1.17939,4.21962 3.46597,4.21962"
         id="path1592"
         style="fill:#ff5c39;fill-rule:nonzero;stroke:none;stroke-width:0.26458332" />
      <path
         inkscape:connector-curvature="0"
         d="m -359.75959,120.20509 v 2.16022 c 0.90411,-1.50731 2.41143,-2.36176 4.09476,-2.36176 2.21137,0 3.71721,1.33129 3.71721,3.7924 v 9.06957 h -2.61154 v -8.23918 c 0,-1.70894 -0.77922,-2.31218 -1.9586,-2.31218 -1.63372,0 -3.24183,1.93459 -3.24183,5.42762 v 5.12374 h -2.61152 v -12.66043 z"
         id="path1594"
         style="fill:#ff5c39;fill-rule:nonzero;stroke:none;stroke-width:0.26458332" />
      <path
         inkscape:connector-curvature="0"
         d="m -340.65211,120.20509 h 2.11058 v -3.49151 l 2.61149,-1.6337 v 5.12521 h 3.29147 v 2.31066 h -3.29147 v 6.17977 c 0,1.43211 0.52952,2.05941 1.68483,2.05941 0.45131,0 0.75369,-0.0752 1.20499,-0.35199 l 0.67842,2.21136 c -0.67842,0.32794 -1.33131,0.45279 -2.03534,0.45279 -2.38585,0 -4.14439,-1.40805 -4.14439,-4.52201 v -6.02933 h -2.11058 z"
         id="path1598"
         style="fill:#ff5c39;fill-rule:nonzero;stroke:none;stroke-width:0.26458332" />
      <path
         inkscape:connector-curvature="0"
         d="m -325.92549,115.07942 v 7.28548 c 0.90409,-1.30577 2.36178,-2.36181 4.27074,-2.36181 2.33625,0 3.74277,1.2561 3.74277,3.94436 v 8.91766 h -2.61299 v -8.23923 c 0,-1.93453 -0.80332,-2.31213 -1.98273,-2.31213 -1.43211,0 -3.41779,1.83528 -3.41779,5.20198 v 5.34938 h -2.61154 v -17.78569 z"
         id="path1600"
         style="fill:#ff5c39;fill-rule:nonzero;stroke:none;stroke-width:0.26458332" />
      <path
         inkscape:connector-curvature="0"
         d="m -308.25917,125.07945 h 2.18579 v -0.5536 c 0,-1.58256 -1.13128,-2.21136 -2.46257,-2.21136 -1.03046,0 -1.9346,0.55361 -2.36182,1.68483 l -2.38736,-0.50393 c 0.52802,-2.13465 2.33775,-3.49152 4.77323,-3.49152 2.93946,0 5.05001,1.28168 5.05001,4.99888 v 7.86309 h -2.20984 l -0.25273,-1.65775 c -0.82887,1.15528 -2.13465,1.85933 -3.9188,1.85933 -2.11053,0 -3.89315,-1.20647 -3.89315,-3.84354 0,-2.61302 2.2354,-4.14443 5.47724,-4.14443 m -1.13123,5.67579 c 1.60806,0 3.31702,-1.02894 3.31702,-3.2162 v -0.2738 h -2.28656 c -1.60814,0 -2.61302,0.75218 -2.61302,1.95864 0,0.85444 0.47686,1.53136 1.58256,1.53136"
         id="path1602"
         style="fill:#ff5c39;fill-rule:nonzero;stroke:none;stroke-width:0.26458332" />
      <path
         inkscape:connector-curvature="0"
         d="m -300.2506,120.20509 h 2.11055 v -3.49151 l 2.61149,-1.6337 v 5.12521 h 3.29149 v 2.31066 h -3.29149 v 6.17977 c 0,1.43211 0.52955,2.05941 1.68483,2.05941 0.45133,0 0.75369,-0.0752 1.20502,-0.35199 l 0.67842,2.21136 c -0.67842,0.32794 -1.33134,0.45279 -2.03534,0.45279 -2.38585,0 -4.14442,-1.40805 -4.14442,-4.52201 v -6.02933 h -2.11055 z"
         id="path1604"
         style="fill:#ff5c39;fill-rule:nonzero;stroke:none;stroke-width:0.26458332" />
      <path
         inkscape:connector-curvature="0"
         d="m -277.5491,120.20509 v 2.16022 c 1.03046,-1.58255 2.28656,-2.36176 3.81943,-2.36176 1.70743,0 3.11399,1.03046 3.49005,2.61301 0.88004,-1.65779 2.31219,-2.61301 3.94436,-2.61301 2.31066,0 3.6179,1.58255 3.6179,3.7924 v 9.06957 h -2.61149 v -8.49043 c 0,-1.38244 -0.75369,-2.06092 -1.86084,-2.06092 -1.557,0 -2.96353,1.98572 -2.96353,5.47728 v 5.07407 h -2.61302 v -8.49043 c 0,-1.38244 -0.75368,-2.06092 -1.85785,-2.06092 -1.58404,0 -2.96501,1.98572 -2.96501,5.75407 v 4.79728 h -2.61154 v -12.66043 z"
         id="path1608"
         style="fill:#ff5c39;fill-rule:nonzero;stroke:none;stroke-width:0.26458332" />
      <path
         inkscape:connector-curvature="0"
         d="m -253.00019,125.07945 h 2.18579 v -0.5536 c 0,-1.58256 -1.13127,-2.21136 -2.46257,-2.21136 -1.03046,0 -1.93459,0.55361 -2.36179,1.68483 l -2.38738,-0.50393 c 0.52804,-2.13465 2.33774,-3.49152 4.77323,-3.49152 2.93945,0 5.05,1.28168 5.05,4.99888 v 7.86309 h -2.20984 l -0.25272,-1.65775 c -0.82888,1.15528 -2.13466,1.85933 -3.91878,1.85933 -2.11055,0 -3.89317,-1.20647 -3.89317,-3.84354 0,-2.61302 2.2354,-4.14443 5.47723,-4.14443 m -1.13123,5.67579 c 1.60809,0 3.31702,-1.02894 3.31702,-3.2162 v -0.2738 h -2.28656 c -1.60811,0 -2.61302,0.75218 -2.61302,1.95864 0,0.85444 0.47686,1.53136 1.58256,1.53136"
         id="path1610"
         style="fill:#ff5c39;fill-rule:nonzero;stroke:none;stroke-width:0.26458332" />
      <path
         inkscape:connector-curvature="0"
         d="m -244.99157,120.20509 h 2.11055 v -3.49151 l 2.6115,-1.6337 v 5.12521 h 3.29149 v 2.31066 h -3.29149 v 6.17977 c 0,1.43211 0.52954,2.05941 1.68483,2.05941 0.45133,0 0.75368,-0.0752 1.20501,-0.35199 l 0.67842,2.21136 c -0.67842,0.32794 -1.33133,0.45279 -2.03534,0.45279 -2.38585,0 -4.14442,-1.40805 -4.14442,-4.52201 v -6.02933 h -2.11055 z"
         id="path1612"
         style="fill:#ff5c39;fill-rule:nonzero;stroke:none;stroke-width:0.26458332" />
      <path
         inkscape:connector-curvature="0"
         d="m -233.83041,120.20509 h 2.11054 v -3.49151 l 2.61149,-1.6337 v 5.12521 h 3.29149 v 2.31066 h -3.29149 v 6.17977 c 0,1.43211 0.52957,2.05941 1.68485,2.05941 0.45133,0 0.75366,-0.0752 1.20499,-0.35199 l 0.67845,2.21136 c -0.67845,0.32794 -1.33134,0.45279 -2.03537,0.45279 -2.38585,0 -4.14441,-1.40805 -4.14441,-4.52201 v -6.02933 h -2.11054 z"
         id="path1614"
         style="fill:#ff5c39;fill-rule:nonzero;stroke:none;stroke-width:0.26458332" />
      <path
         inkscape:connector-curvature="0"
         d="m -211.03957,127.26447 h -8.96881 c 0,1.85787 1.08014,3.49005 3.13954,3.49005 1.35691,0 2.66415,-0.75369 3.31702,-2.13466 l 2.23547,0.88007 c -1.23205,2.38585 -2.6627,3.56675 -5.55249,3.56675 -4.16847,0 -5.90299,-3.51713 -5.90299,-6.53179 0,-3.01466 1.73452,-6.5318 5.90299,-6.5318 4.04512,0 5.82927,3.2915 5.82927,6.13015 z m -8.91913,-2.18579 h 6.15568 c -0.22564,-1.40801 -1.18091,-2.76493 -3.06582,-2.76493 -1.73299,0 -2.81308,1.18242 -3.08986,2.76493"
         id="path1616"
         style="fill:#ff5c39;fill-rule:nonzero;stroke:none;stroke-width:0.26458332" />
      <path
         inkscape:connector-curvature="0"
         d="m -206.7488,132.86552 v -12.66038 h 2.61149 v 2.10907 c 0.87851,-1.50735 2.38738,-2.31066 3.74278,-2.31066 0.67844,0 1.23204,0.15196 1.60813,0.30089 l -0.45285,2.38737 c -0.40165,-0.25126 -0.95375,-0.3776 -1.48022,-0.3776 -1.68487,0 -3.41784,1.85934 -3.41784,5.85332 v 4.69799 z"
         id="path1618"
         style="fill:#ff5c39;fill-rule:nonzero;stroke:none;stroke-width:0.26458332" />
      <path
         inkscape:connector-curvature="0"
         d="m -187.89188,122.01342 -1.6578,1.45773 c -0.62881,-0.80331 -1.40805,-1.15684 -2.21137,-1.15684 -0.65287,0 -1.2561,0.42873 -1.2561,1.2561 0,0.90563 0.95527,1.30727 2.26101,1.8097 1.7074,0.65291 3.54118,1.40654 3.54118,3.66757 0,2.18579 -1.68185,4.01956 -4.39564,4.01956 -2.61302,0 -4.24519,-1.80971 -4.8981,-3.39074 l 2.20989,-1.20648 c 0.50242,1.12976 1.38243,2.28504 2.78898,2.28504 1.00488,0 1.70743,-0.5009 1.70743,-1.65623 0,-1.10718 -1.53142,-1.40805 -3.01317,-2.03535 -1.45768,-0.60324 -2.71381,-1.53293 -2.71381,-3.46751 0,-1.95863 1.60812,-3.59233 3.8932,-3.59233 1.53293,0 2.94095,0.75368 3.7443,2.00978"
         id="path1620"
         style="fill:#ff5c39;fill-rule:nonzero;stroke:none;stroke-width:0.26458332" />
    </g>
  </g>
</svg>
